<svg fill="#000000" xmlns="http://www.w3.org/2000/svg"  viewBox="0 0 24 24" width="24px" height="24px"><path d="M 8 3 C 6.9069372 3 6 3.9069372 6 5 L 8 5 L 16 5 L 18 5 C 18 3.9069372 17.093063 3 16 3 L 8 3 z M 6 6 C 4.9069372 6 4 6.9069372 4 8 L 6 8 L 18 8 L 20 8 C 20 6.9069372 19.093063 6 18 6 L 6 6 z M 5 9 C 3.9069372 9 3 9.9069372 3 11 L 3 19 C 3 20.093063 3.9069372 21 5 21 L 19 21 C 20.093063 21 21 20.093063 21 19 L 21 11 C 21 9.9069372 20.093063 9 19 9 L 5 9 z M 5 11 L 19 11 L 19 19 L 5 19 L 5 11 z"/></svg>